<svg xmlns="http://www.w3.org/2000/svg" id="mirror" viewBox="0 0 96 96">
  <path d="m68.7,27.33l-1.09,4.74c-.2.86-.82,1.52-1.61,1.8-1.33,29.62-35.06,29.24-35.99-.36-.24-18.44,18.07-30.38,30.28-16.44.5-.36,1.06-1.03,1.37-2.39l.88-3.83c-4.04-3.66-9.08-5.84-14.54-5.84-26.87.74-32.71,43.19-9.13,54.85,2.69,1.32,4.35,3.87,4.34,6.65-.02,6.46-2.18,10.22-2.2,16.6,0,5.99,2.29,8.9,7,8.9s7-2.91,7-8.9c-.03-6.38-2.19-10.14-2.2-16.6-.01-2.79,1.65-5.33,4.34-6.65,11.7-5.34,17.65-22.16,13.65-35.27-.56.16-1.61.67-2.09,2.75Zm-20.7,59.67c-2.64-.07-2.64-3.93,0-4,2.64.07,2.64,3.93,0,4Z" style="stroke-width:0"></path>
  <path d="m63.6 15.12 1.1-4.74c.12-.51.84-.51.96 0l1.1 4.74c.49 2.14 1.67 3.81 3.81 4.3l3.75 1.1c.51.12.51.84 0 .96l-3.75 1.1c-2.14.49-3.31 2.16-3.81 4.3l-1.1 4.74c-.12.51-.84.51-.96 0l-1.1-4.74c-.49-2.14-1.67-3.81-3.81-4.3l-3.75-1.1c-.51-.12-.51-.84 0-.96l3.75-1.1c2.14-.49 3.31-2.16 3.81-4.3ZM40.62 41.25c-.71.01-1.22-.78-.91-1.42 0 0 6.76-14.5 6.76-14.5.23-.5.83-.72 1.33-.48.5.23.72.83.48 1.33l-6.76 14.5c-.17.36-.53.58-.91.58ZM49.62 41.25c-.71.01-1.22-.78-.91-1.42 0 0 6.76-14.5 6.76-14.5.23-.5.83-.72 1.33-.48.5.23.72.83.48 1.33l-6.76 14.5c-.17.36-.53.58-.91.58Z" style="stroke-width:0"></path>
</svg>
